<mxfile host="Electron" agent="Mozilla/5.0 (Windows NT 10.0; Win64; x64) AppleWebKit/537.36 (KHTML, like Gecko) draw.io/28.0.4 Chrome/138.0.7204.97 Electron/37.2.1 Safari/537.36" version="28.0.4">
  <diagram name="Page-1" id="Mfh2aXw-oCJR6t4s0Dtq">
    <mxGraphModel dx="1042" dy="660" grid="1" gridSize="10" guides="1" tooltips="1" connect="1" arrows="1" fold="1" page="1" pageScale="1" pageWidth="850" pageHeight="1100" math="0" shadow="0">
      <root>
        <mxCell id="0" />
        <mxCell id="1" parent="0" />
        <mxCell id="Xik6IyyxX8sWY2GpoZtv-3" value="" style="image;aspect=fixed;html=1;points=[];align=center;fontSize=12;image=img/lib/azure2/general/Folder_Blank.svg;" parent="1" vertex="1">
          <mxGeometry x="126" y="170" width="69" height="56.00000000000001" as="geometry" />
        </mxCell>
        <mxCell id="Xik6IyyxX8sWY2GpoZtv-4" value="" style="image;aspect=fixed;html=1;points=[];align=center;fontSize=12;image=img/lib/azure2/general/Folder_Blank.svg;" parent="1" vertex="1">
          <mxGeometry x="125.5" y="330" width="69" height="56.00000000000001" as="geometry" />
        </mxCell>
        <mxCell id="Xik6IyyxX8sWY2GpoZtv-5" value="&lt;span style=&quot;font-size: 16px;&quot;&gt;CRM&lt;/span&gt;" style="text;html=1;align=center;verticalAlign=middle;whiteSpace=wrap;rounded=0;" parent="1" vertex="1">
          <mxGeometry x="126" y="240" width="60" height="30" as="geometry" />
        </mxCell>
        <mxCell id="Xik6IyyxX8sWY2GpoZtv-6" value="&lt;span style=&quot;font-size: 16px;&quot;&gt;ERP&lt;/span&gt;" style="text;html=1;align=center;verticalAlign=middle;whiteSpace=wrap;rounded=0;" parent="1" vertex="1">
          <mxGeometry x="130" y="400" width="60" height="30" as="geometry" />
        </mxCell>
        <mxCell id="Xik6IyyxX8sWY2GpoZtv-7" value="" style="rounded=1;whiteSpace=wrap;html=1;fillStyle=hatch;fillColor=#a0522d;fontColor=#ffffff;strokeColor=#6D1F00;" parent="1" vertex="1">
          <mxGeometry x="350" y="130" width="200" height="400" as="geometry" />
        </mxCell>
        <mxCell id="Xik6IyyxX8sWY2GpoZtv-8" value="&lt;span style=&quot;font-size: 16px;&quot;&gt;&lt;b&gt;Bronze Layer&lt;/b&gt;&lt;/span&gt;" style="rounded=1;whiteSpace=wrap;html=1;fillColor=#f0a30a;fontColor=#000000;strokeColor=#BD7000;" parent="1" vertex="1">
          <mxGeometry x="360" y="100" width="180" height="30" as="geometry" />
        </mxCell>
        <mxCell id="Xik6IyyxX8sWY2GpoZtv-17" style="edgeStyle=orthogonalEdgeStyle;rounded=0;orthogonalLoop=1;jettySize=auto;html=1;entryX=0.006;entryY=0.567;entryDx=0;entryDy=0;entryPerimeter=0;" parent="1" source="Xik6IyyxX8sWY2GpoZtv-9" target="Xik6IyyxX8sWY2GpoZtv-7" edge="1">
          <mxGeometry relative="1" as="geometry">
            <mxPoint x="290" y="330" as="targetPoint" />
          </mxGeometry>
        </mxCell>
        <mxCell id="Xik6IyyxX8sWY2GpoZtv-9" value="" style="rounded=1;whiteSpace=wrap;html=1;fillStyle=hatch;fillColor=#e3c800;fontColor=#000000;strokeColor=#B09500;" parent="1" vertex="1">
          <mxGeometry x="80" y="130" width="180" height="400" as="geometry" />
        </mxCell>
        <mxCell id="Xik6IyyxX8sWY2GpoZtv-10" value="&lt;font style=&quot;font-size: 16px;&quot;&gt;&lt;b&gt;SOURCES&lt;/b&gt;&lt;/font&gt;" style="rounded=1;whiteSpace=wrap;html=1;fillColor=#fff2cc;strokeColor=#d6b656;" parent="1" vertex="1">
          <mxGeometry x="80" y="100" width="180" height="30" as="geometry" />
        </mxCell>
        <mxCell id="Xik6IyyxX8sWY2GpoZtv-11" value="&lt;span style=&quot;font-size: 16px;&quot;&gt;&lt;b&gt;crm_sales_details&lt;/b&gt;&lt;/span&gt;" style="rounded=1;whiteSpace=wrap;html=1;" parent="1" vertex="1">
          <mxGeometry x="360" y="150" width="180" height="30" as="geometry" />
        </mxCell>
        <mxCell id="Xik6IyyxX8sWY2GpoZtv-12" value="&lt;font style=&quot;font-size: 16px;&quot;&gt;&lt;b&gt;crm_cus_info&lt;/b&gt;&lt;/font&gt;" style="rounded=1;whiteSpace=wrap;html=1;" parent="1" vertex="1">
          <mxGeometry x="360" y="183" width="180" height="30" as="geometry" />
        </mxCell>
        <mxCell id="Xik6IyyxX8sWY2GpoZtv-13" value="&lt;span style=&quot;font-size: 16px;&quot;&gt;&lt;b&gt;crm_prd_info&lt;/b&gt;&lt;/span&gt;" style="rounded=1;whiteSpace=wrap;html=1;" parent="1" vertex="1">
          <mxGeometry x="360" y="226" width="180" height="30" as="geometry" />
        </mxCell>
        <mxCell id="Xik6IyyxX8sWY2GpoZtv-14" value="&lt;span style=&quot;font-size: 16px;&quot;&gt;&lt;b&gt;erp_cust_az12&lt;/b&gt;&lt;/span&gt;" style="rounded=1;whiteSpace=wrap;html=1;" parent="1" vertex="1">
          <mxGeometry x="360" y="330" width="180" height="30" as="geometry" />
        </mxCell>
        <mxCell id="Xik6IyyxX8sWY2GpoZtv-15" value="&lt;font style=&quot;font-size: 16px;&quot;&gt;&lt;b&gt;erp_loc_a101&lt;/b&gt;&lt;/font&gt;" style="rounded=1;whiteSpace=wrap;html=1;" parent="1" vertex="1">
          <mxGeometry x="360" y="370" width="180" height="30" as="geometry" />
        </mxCell>
        <mxCell id="Xik6IyyxX8sWY2GpoZtv-16" value="&lt;font style=&quot;font-size: 16px;&quot;&gt;&lt;b&gt;erp_px_cat_g1v2&lt;/b&gt;&lt;/font&gt;" style="rounded=1;whiteSpace=wrap;html=1;" parent="1" vertex="1">
          <mxGeometry x="360" y="410" width="180" height="30" as="geometry" />
        </mxCell>
        <mxCell id="Xik6IyyxX8sWY2GpoZtv-18" value="DATA FLOW DIAGRAM" style="text;html=1;align=center;verticalAlign=middle;whiteSpace=wrap;rounded=0;fillColor=none;fontColor=#000000;strokeColor=#BD7000;fontSize=27;" parent="1" vertex="1">
          <mxGeometry x="70" y="10" width="380" height="30" as="geometry" />
        </mxCell>
        <mxCell id="HA7Fbnr-nZ5VksZ_BOYl-25" style="edgeStyle=orthogonalEdgeStyle;rounded=0;orthogonalLoop=1;jettySize=auto;html=1;entryX=0;entryY=0.5;entryDx=0;entryDy=0;" edge="1" parent="1" source="HA7Fbnr-nZ5VksZ_BOYl-1" target="HA7Fbnr-nZ5VksZ_BOYl-19">
          <mxGeometry relative="1" as="geometry" />
        </mxCell>
        <mxCell id="HA7Fbnr-nZ5VksZ_BOYl-1" value="" style="rounded=1;whiteSpace=wrap;html=1;fillStyle=hatch;fillColor=#f5f5f5;strokeColor=#666666;gradientColor=#b3b3b3;" vertex="1" parent="1">
          <mxGeometry x="610" y="130" width="200" height="400" as="geometry" />
        </mxCell>
        <mxCell id="HA7Fbnr-nZ5VksZ_BOYl-2" value="&lt;span style=&quot;font-size: 16px;&quot;&gt;&lt;b&gt;Silver Layer&lt;/b&gt;&lt;/span&gt;" style="rounded=1;whiteSpace=wrap;html=1;fillColor=#f5f5f5;strokeColor=#666666;gradientColor=#b3b3b3;" vertex="1" parent="1">
          <mxGeometry x="620" y="100" width="180" height="30" as="geometry" />
        </mxCell>
        <mxCell id="HA7Fbnr-nZ5VksZ_BOYl-3" value="&lt;span style=&quot;font-size: 16px;&quot;&gt;&lt;b&gt;crm_sales_details&lt;/b&gt;&lt;/span&gt;" style="rounded=1;whiteSpace=wrap;html=1;" vertex="1" parent="1">
          <mxGeometry x="620" y="150" width="180" height="30" as="geometry" />
        </mxCell>
        <mxCell id="HA7Fbnr-nZ5VksZ_BOYl-4" value="&lt;font style=&quot;font-size: 16px;&quot;&gt;&lt;b&gt;crm_cus_info&lt;/b&gt;&lt;/font&gt;" style="rounded=1;whiteSpace=wrap;html=1;" vertex="1" parent="1">
          <mxGeometry x="620" y="183" width="180" height="30" as="geometry" />
        </mxCell>
        <mxCell id="HA7Fbnr-nZ5VksZ_BOYl-5" value="&lt;span style=&quot;font-size: 16px;&quot;&gt;&lt;b&gt;crm_prd_info&lt;/b&gt;&lt;/span&gt;" style="rounded=1;whiteSpace=wrap;html=1;" vertex="1" parent="1">
          <mxGeometry x="620" y="226" width="180" height="30" as="geometry" />
        </mxCell>
        <mxCell id="HA7Fbnr-nZ5VksZ_BOYl-6" value="&lt;span style=&quot;font-size: 16px;&quot;&gt;&lt;b&gt;erp_cust_az12&lt;/b&gt;&lt;/span&gt;" style="rounded=1;whiteSpace=wrap;html=1;" vertex="1" parent="1">
          <mxGeometry x="620" y="330" width="180" height="30" as="geometry" />
        </mxCell>
        <mxCell id="HA7Fbnr-nZ5VksZ_BOYl-7" value="&lt;font style=&quot;font-size: 16px;&quot;&gt;&lt;b&gt;erp_loc_a101&lt;/b&gt;&lt;/font&gt;" style="rounded=1;whiteSpace=wrap;html=1;" vertex="1" parent="1">
          <mxGeometry x="620" y="370" width="180" height="30" as="geometry" />
        </mxCell>
        <mxCell id="HA7Fbnr-nZ5VksZ_BOYl-8" value="&lt;font style=&quot;font-size: 16px;&quot;&gt;&lt;b&gt;erp_px_cat_g1v2&lt;/b&gt;&lt;/font&gt;" style="rounded=1;whiteSpace=wrap;html=1;" vertex="1" parent="1">
          <mxGeometry x="620" y="410" width="180" height="30" as="geometry" />
        </mxCell>
        <mxCell id="HA7Fbnr-nZ5VksZ_BOYl-24" style="edgeStyle=orthogonalEdgeStyle;rounded=0;orthogonalLoop=1;jettySize=auto;html=1;entryX=0;entryY=0.5;entryDx=0;entryDy=0;" edge="1" parent="1" target="HA7Fbnr-nZ5VksZ_BOYl-1">
          <mxGeometry relative="1" as="geometry">
            <mxPoint x="560" y="330" as="sourcePoint" />
          </mxGeometry>
        </mxCell>
        <mxCell id="HA7Fbnr-nZ5VksZ_BOYl-9" value="" style="rounded=1;whiteSpace=wrap;html=1;fillStyle=hatch;fillColor=none;strokeColor=#d6b656;gradientColor=#ffd966;" vertex="1" parent="1">
          <mxGeometry x="350" y="130" width="200" height="400" as="geometry" />
        </mxCell>
        <mxCell id="HA7Fbnr-nZ5VksZ_BOYl-19" value="" style="rounded=1;whiteSpace=wrap;html=1;fillColor=#fff2cc;gradientColor=#ffd966;strokeColor=#d6b656;" vertex="1" parent="1">
          <mxGeometry x="860" y="120" width="180" height="410" as="geometry" />
        </mxCell>
        <mxCell id="HA7Fbnr-nZ5VksZ_BOYl-20" value="&lt;span style=&quot;font-size: 16px;&quot;&gt;&lt;b&gt;Gold Layer&lt;/b&gt;&lt;/span&gt;" style="rounded=1;whiteSpace=wrap;html=1;fillColor=#ffcd28;strokeColor=#d79b00;gradientColor=#ffa500;" vertex="1" parent="1">
          <mxGeometry x="860" y="90" width="180" height="30" as="geometry" />
        </mxCell>
        <mxCell id="HA7Fbnr-nZ5VksZ_BOYl-21" value="&lt;span style=&quot;font-size: 16px;&quot;&gt;&lt;b&gt;Fact_Sales&lt;/b&gt;&lt;/span&gt;" style="rounded=1;whiteSpace=wrap;html=1;" vertex="1" parent="1">
          <mxGeometry x="860" y="226" width="180" height="30" as="geometry" />
        </mxCell>
        <mxCell id="HA7Fbnr-nZ5VksZ_BOYl-22" value="&lt;span style=&quot;font-size: 16px;&quot;&gt;&lt;b&gt;Dim_Product&lt;/b&gt;&lt;/span&gt;" style="rounded=1;whiteSpace=wrap;html=1;" vertex="1" parent="1">
          <mxGeometry x="860" y="280" width="180" height="30" as="geometry" />
        </mxCell>
        <mxCell id="HA7Fbnr-nZ5VksZ_BOYl-23" value="&lt;span style=&quot;font-size: 16px;&quot;&gt;&lt;b&gt;Dim_Customers&lt;/b&gt;&lt;/span&gt;" style="rounded=1;whiteSpace=wrap;html=1;" vertex="1" parent="1">
          <mxGeometry x="860" y="340" width="180" height="30" as="geometry" />
        </mxCell>
      </root>
    </mxGraphModel>
  </diagram>
</mxfile>
